<?xml version="1.0" encoding="UTF-8" standalone="no"?>
<!-- Generator: Adobe Illustrator 23.0.3, SVG Export Plug-In . SVG Version: 6.00 Build 0)  -->

<svg
   xmlns:dc="http://purl.org/dc/elements/1.1/"
   xmlns:cc="http://creativecommons.org/ns#"
   xmlns:rdf="http://www.w3.org/1999/02/22-rdf-syntax-ns#"
   xmlns:svg="http://www.w3.org/2000/svg"
   xmlns="http://www.w3.org/2000/svg"
   xmlns:sodipodi="http://sodipodi.sourceforge.net/DTD/sodipodi-0.dtd"
   xmlns:inkscape="http://www.inkscape.org/namespaces/inkscape"
   version="1.1"
   id="Layer_1"
   x="0px"
   y="0px"
   viewBox="0 0 30 30"
   xml:space="preserve"
   sodipodi:docname="doctor-consulting.svg"
   width="30"
   height="30"
   inkscape:version="0.92.4 (5da689c313, 2019-01-14)"><metadata
   id="metadata871"><rdf:RDF><cc:Work
       rdf:about=""><dc:format>image/svg+xml</dc:format><dc:type
         rdf:resource="http://purl.org/dc/dcmitype/StillImage" /><dc:title /></cc:Work></rdf:RDF></metadata><defs
   id="defs869">
		
		
		
	</defs><sodipodi:namedview
   pagecolor="#ffffff"
   bordercolor="#666666"
   borderopacity="1"
   objecttolerance="10"
   gridtolerance="10"
   guidetolerance="10"
   inkscape:pageopacity="0"
   inkscape:pageshadow="2"
   inkscape:window-width="1920"
   inkscape:window-height="1137"
   id="namedview867"
   showgrid="false"
   inkscape:zoom="19.36"
   inkscape:cx="1.4625222"
   inkscape:cy="20.484952"
   inkscape:window-x="-8"
   inkscape:window-y="1"
   inkscape:window-maximized="1"
   inkscape:current-layer="g864" />
<style
   type="text/css"
   id="style844">
	.st0{fill:none;stroke:#EF6E22;stroke-width:1.1216;stroke-linecap:round;stroke-linejoin:round;stroke-miterlimit:10;}
</style>
<g
   id="g864"
   transform="matrix(0.60700896,0,0,0.60700896,-0.175224,-0.47872812)">
	
	
	
	
	
	<g
   id="g837"
   transform="translate(-0.38967087)"><path
     class="st0"
     d="m 36.411498,19.912507 v 3.884437 c 0,6.259329 -5.067076,11.326404 -11.326404,11.326404 v 0 c -6.259328,0 -11.326404,-5.067075 -11.326404,-11.326404 v -3.884437"
     id="path846"
     inkscape:connector-curvature="0"
     style="fill:none;stroke:#ef6e22;stroke-width:2.87362719;stroke-linecap:round;stroke-linejoin:round;stroke-miterlimit:10;stroke-dasharray:none" /><path
     class="st0"
     d="m 36.411498,19.710593 c 0,-0.201913 1.701845,-3.26908 1.69223,-3.470994 C 37.786435,9.3264547 32.084773,3.8170917 25.085094,3.8170917 v 0 c -7.009294,0 -12.730185,5.538208 -13.028249,12.4801963 -0.0096,0.182684 1.69223,3.942127 1.69223,3.942127"
     id="path848"
     inkscape:connector-curvature="0"
     style="fill:none;stroke:#ef6e22;stroke-width:2.87362719;stroke-linecap:round;stroke-linejoin:round;stroke-miterlimit:10;stroke-dasharray:none" /><polyline
     transform="matrix(0.96149437,0,0,0.96149437,1.0477349,1.894103)"
     class="st0"
     points="13.22,19.62 17.99,15.07 19.86,17.45 21.45,16.01 23.86,18.68 26.87,15.07 29.89,18.19 32.8,14.42     36.78,18.53   "
     id="polyline850"
     style="fill:none;stroke:#ef6e22;stroke-width:2.98870921;stroke-linecap:round;stroke-linejoin:round;stroke-miterlimit:10;stroke-dasharray:none" /><path
     style="fill:none;stroke:#ef6e22;stroke-width:1.80567849;stroke-linecap:round;stroke-linejoin:round;stroke-miterlimit:10;stroke-dasharray:none"
     inkscape:connector-curvature="0"
     id="path854"
     d="m 39.293354,24.725725 c 0,0.173462 0,0.785676 -0.01019,0.959137 -0.265293,7.611868 -6.520086,13.703404 -14.20338,13.703404 v 0 c -7.662885,0 -13.907475,-6.060925 -14.193174,-13.652386 -0.01019,-0.183665 -0.01019,-0.816287 -0.01019,-0.999951"
     class="st0" /><path
     style="fill:none;stroke:#ef6e22;stroke-width:1.63133705;stroke-linecap:round;stroke-linejoin:round;stroke-miterlimit:10;stroke-dasharray:none"
     inkscape:connector-curvature="0"
     id="path856"
     d="m 11.245805,20.218745 c -0.884575,0 -1.5960812,0.711506 -1.5960812,1.596081 v 1.134563 c 0,0.884575 0.7115062,1.596081 1.5960812,1.596081 z"
     class="st0" /><path
     style="fill:none;stroke:#ef6e22;stroke-width:2.25398493;stroke-linecap:round;stroke-linejoin:round;stroke-miterlimit:10;stroke-dasharray:none"
     inkscape:connector-curvature="0"
     id="path858"
     d="m 39.222214,20.091104 c 0.884574,0 1.59608,0.711506 1.59608,1.596081 v 1.134563 c 0,0.884575 -0.711506,1.596081 -1.59608,1.596081 z"
     class="st0" /><path
     sodipodi:nodetypes="cssc"
     style="fill:none;stroke:#ef6e22;stroke-width:1.63133705;stroke-linecap:round;stroke-linejoin:round;stroke-miterlimit:10;stroke-dasharray:none"
     inkscape:connector-curvature="0"
     id="path860"
     d="m 29.767572,46.764164 h -0.538437 c -2.288357,0 -4.201653,-1.856409 -4.144041,-4.144041 l 0.08181,-3.248765"
     class="st0" /><circle
     style="fill:none;stroke:#ef6e22;stroke-width:1.63133705;stroke-linecap:round;stroke-linejoin:round;stroke-miterlimit:10;stroke-dasharray:none"
     id="circle862"
     r="2.8556383"
     cy="46.321877"
     cx="32.671284"
     class="st0" /></g>
</g>
</svg>