<?xml version="1.0" encoding="utf-8"?>
<!-- Generator: Adobe Illustrator 16.0.0, SVG Export Plug-In . SVG Version: 6.00 Build 0)  -->
<!DOCTYPE svg PUBLIC "-//W3C//DTD SVG 1.1//EN" "http://www.w3.org/Graphics/SVG/1.1/DTD/svg11.dtd">
<svg version="1.1" id="Layer_1" xmlns="http://www.w3.org/2000/svg" xmlns:xlink="http://www.w3.org/1999/xlink" x="0px" y="0px"
	 width="50px" height="50px" viewBox="0 0 50 50" enable-background="new 0 0 50 50" xml:space="preserve">
<path fill="#F47921" d="M24.997,45.848c-0.585,0-1.17-0.224-1.616-0.67L4.423,26.222c-0.068-0.066-0.131-0.14-0.19-0.214
	C2.079,23.575,1,20.681,1,17.359C1,10.077,6.924,4.152,14.206,4.152c4.395,0,8.38,2.215,10.794,5.636
	c2.413-3.421,6.397-5.636,10.79-5.636c7.283,0,13.21,5.925,13.21,13.207c0,3.229-1.186,6.341-3.335,8.765L26.614,45.178
	C26.168,45.624,25.582,45.848,24.997,45.848z M7.75,23.085L24.997,40.33l17.342-17.341c1.315-1.486,2.09-3.521,2.09-5.63
	c0-4.762-3.875-8.635-8.639-8.635c-4.252,0-7.917,3.175-8.528,7.385c-0.163,1.123-1.128,1.957-2.263,1.957l0,0
	c-1.136,0-2.099-0.835-2.262-1.959c-0.609-4.209-4.276-7.383-8.531-7.383c-4.761,0-8.635,3.873-8.635,8.635
	c0,2.166,0.689,4.039,2.05,5.566C7.641,22.947,7.698,23.019,7.75,23.085z"/>
</svg>
