<?xml version="1.0" encoding="utf-8"?>
<!-- Generator: Adobe Illustrator 16.0.0, SVG Export Plug-In . SVG Version: 6.00 Build 0)  -->
<!DOCTYPE svg PUBLIC "-//W3C//DTD SVG 1.1//EN" "http://www.w3.org/Graphics/SVG/1.1/DTD/svg11.dtd">
<svg version="1.1" id="Layer_1" xmlns="http://www.w3.org/2000/svg" xmlns:xlink="http://www.w3.org/1999/xlink" x="0px" y="0px"
	 width="50px" height="50px" viewBox="0 0 50 50" enable-background="new 0 0 50 50" xml:space="preserve">
<g>
	<path fill="#F47921" d="M25.004,48.993c-12.264,0-22.516-9.186-23.845-21.367l-0.014-0.234L1,1.007h24.004
		C38.235,1.007,49,11.77,49,24.999C49,38.23,38.235,48.993,25.004,48.993z M5.715,27.244c1.127,9.802,9.399,17.179,19.289,17.179
		c10.711,0,19.425-8.714,19.425-19.424c0-10.709-8.714-19.422-19.425-19.422H5.595L5.715,27.244z"/>
	<g>
		<g>
			<g>
				<path fill="#F47921" d="M18.545,36.684c-0.615,0-1.124-0.497-1.124-1.124V12.877c0-0.616,0.509-1.125,1.124-1.125
					c0.626,0,1.125,0.509,1.125,1.125V35.56C19.67,36.187,19.171,36.684,18.545,36.684z"/>
				<path fill="#F47921" d="M18.545,37.255c-0.935,0-1.695-0.761-1.695-1.695V12.877c0-0.936,0.76-1.696,1.695-1.696
					s1.696,0.761,1.696,1.696V35.56C20.241,36.494,19.48,37.255,18.545,37.255z M18.545,12.323c-0.299,0-0.552,0.253-0.552,0.554
					V35.56c0,0.306,0.248,0.553,0.552,0.553c0.31,0,0.553-0.243,0.553-0.553V12.877C19.099,12.572,18.85,12.323,18.545,12.323z"/>
			</g>
			<g>
				<path fill="#F47921" d="M18.545,37.192c-0.898,0-1.632-0.728-1.632-1.633V12.877c0-0.898,0.734-1.635,1.632-1.635
					c0.905,0,1.642,0.736,1.642,1.635V35.56C20.188,36.465,19.45,37.192,18.545,37.192z M18.545,12.262
					c-0.328,0-0.614,0.287-0.614,0.615V35.56c0,0.339,0.275,0.613,0.614,0.613c0.339,0,0.624-0.274,0.624-0.613V12.877
					C19.169,12.54,18.884,12.262,18.545,12.262z"/>
				<path fill="#F47921" d="M18.545,37.764c-1.215,0-2.204-0.988-2.204-2.204V12.877c0-1.217,0.988-2.206,2.204-2.206
					c1.221,0,2.213,0.989,2.213,2.206V35.56C20.759,36.775,19.766,37.764,18.545,37.764z M18.545,12.262l0.001,0.571
					c-0.016,0.002-0.042,0.029-0.043,0.044V35.56l0.095-22.683L18.545,12.262z"/>
			</g>
		</g>
		<g>
			<g>
				<path fill="#F47921" d="M23.838,25.472c-0.62,0-1.125-0.497-1.125-1.114c0-0.625,0.505-1.124,1.125-1.124
					c2.552,0,4.643-2.089,4.643-4.653c0-2.552-2.091-4.631-4.643-4.631c-0.62,0-1.125-0.507-1.125-1.134
					c0-0.615,0.505-1.122,1.125-1.122c3.797,0,6.89,3.086,6.89,6.887C30.729,22.388,27.636,25.472,23.838,25.472z"/>
				<path fill="#F47921" d="M23.838,26.044c-0.936,0-1.697-0.757-1.697-1.687c0-0.935,0.761-1.695,1.697-1.695
					c2.245,0,4.072-1.831,4.072-4.082c0-2.239-1.827-4.06-4.072-4.06c-0.936,0-1.697-0.765-1.697-1.705
					c0-0.934,0.761-1.693,1.697-1.693c4.114,0,7.461,3.346,7.461,7.458C31.3,22.695,27.952,26.044,23.838,26.044z M23.838,12.264
					c-0.3,0-0.554,0.253-0.554,0.552c0,0.311,0.249,0.562,0.554,0.562c2.875,0,5.214,2.334,5.214,5.202
					c0,2.881-2.339,5.225-5.214,5.225c-0.306,0-0.554,0.249-0.554,0.553c0,0.3,0.249,0.543,0.554,0.543
					c3.485,0,6.319-2.835,6.319-6.32C30.157,15.099,27.323,12.264,23.838,12.264z"/>
			</g>
			<g>
				<path fill="#F47921" d="M23.838,25.99c-0.905,0-1.636-0.736-1.636-1.633c0-0.904,0.731-1.641,1.636-1.641
					c2.275,0,4.134-1.854,4.134-4.137c0-2.273-1.859-4.122-4.134-4.122c-0.905,0-1.636-0.736-1.636-1.643
					c0-0.897,0.731-1.631,1.636-1.631c4.076,0,7.399,3.319,7.399,7.396C31.237,22.665,27.914,25.99,23.838,25.99z M23.838,12.211
					c-0.34,0-0.617,0.267-0.617,0.604c0,0.339,0.276,0.616,0.617,0.616c2.842,0,5.154,2.31,5.154,5.148
					c0,2.844-2.312,5.163-5.154,5.163c-0.34,0-0.617,0.275-0.617,0.614c0,0.331,0.276,0.606,0.617,0.606
					c3.516,0,6.376-2.863,6.376-6.384C30.215,15.071,27.354,12.211,23.838,12.211z"/>
				<path fill="#F47921" d="M23.838,26.562c-1.217,0-2.207-0.988-2.207-2.204c0-1.219,0.99-2.212,2.207-2.212
					c1.965,0,3.563-1.599,3.563-3.565c0-1.958-1.598-3.551-3.563-3.551c-1.217,0-2.207-0.993-2.207-2.214
					c0-1.214,0.99-2.202,2.207-2.202c4.395,0,7.97,3.573,7.97,7.967C31.809,22.981,28.233,26.562,23.838,26.562z M23.838,12.782
					c-0.022,0-0.045,0.011-0.045,0.033c3.202,0.045,5.771,2.61,5.771,5.765c0,3.162-2.568,5.734-5.725,5.734
					c3.206,0.063,5.805-2.528,5.805-5.734C29.644,15.383,27.04,12.782,23.838,12.782z"/>
			</g>
		</g>
		<g>
			<g>
				<path fill="#F47921" d="M23.838,13.94h-5.293c-0.615,0-1.124-0.498-1.124-1.125c0-0.615,0.509-1.122,1.124-1.122h5.293
					c0.618,0,1.123,0.507,1.123,1.122C24.961,13.442,24.457,13.94,23.838,13.94z"/>
				<path fill="#F47921" d="M23.838,14.512h-5.293c-0.935,0-1.695-0.762-1.695-1.696c0-0.934,0.76-1.693,1.695-1.693h5.293
					c0.934,0,1.694,0.76,1.694,1.693C25.532,13.75,24.772,14.512,23.838,14.512z M18.545,12.264c-0.299,0-0.552,0.253-0.552,0.552
					c0,0.305,0.248,0.554,0.552,0.554h5.293c0.304,0,0.551-0.249,0.551-0.554c0-0.299-0.252-0.552-0.551-0.552H18.545z"/>
			</g>
			<g>
				<path fill="#F47921" d="M23.838,14.449h-5.293c-0.898,0-1.632-0.73-1.632-1.634c0-0.897,0.734-1.631,1.632-1.631h5.293
					c0.896,0,1.632,0.733,1.632,1.631C25.471,13.719,24.734,14.449,23.838,14.449z M18.545,12.211c-0.328,0-0.614,0.276-0.614,0.604
					c0,0.337,0.275,0.614,0.614,0.614h5.293c0.338,0,0.613-0.277,0.613-0.614c0-0.338-0.274-0.604-0.613-0.604H18.545z"/>
				<path fill="#F47921" d="M23.838,15.021h-5.293c-1.215,0-2.204-0.989-2.204-2.205c0-1.214,0.988-2.202,2.204-2.202h5.293
					c1.215,0,2.204,0.988,2.204,2.202C26.042,14.031,25.054,15.021,23.838,15.021z M18.545,12.782c-0.017,0-0.04,0.021-0.042,0.034
					l5.335,0.042L18.545,12.782z"/>
			</g>
		</g>
		<g>
			<g>
				<path fill="#F47921" d="M25.596,25.472h-7.05c-0.615,0-1.124-0.497-1.124-1.114c0-0.625,0.509-1.124,1.124-1.124h7.05
					c0.62,0,1.125,0.499,1.125,1.124C26.721,24.975,26.216,25.472,25.596,25.472z"/>
				<path fill="#F47921" d="M25.596,26.044h-7.05c-0.935,0-1.695-0.757-1.695-1.687c0-0.935,0.76-1.695,1.695-1.695h7.05
					c0.936,0,1.696,0.761,1.696,1.695C27.292,25.287,26.531,26.044,25.596,26.044z M18.545,23.805c-0.305,0-0.552,0.249-0.552,0.553
					c0,0.3,0.248,0.543,0.552,0.543h7.05c0.305,0,0.554-0.243,0.554-0.543c0-0.304-0.249-0.553-0.554-0.553H18.545z"/>
			</g>
			<g>
				<path fill="#F47921" d="M25.596,25.99h-7.05c-0.898,0-1.632-0.736-1.632-1.633c0-0.904,0.734-1.641,1.632-1.641h7.05
					c0.897,0,1.636,0.736,1.636,1.641C27.231,25.254,26.493,25.99,25.596,25.99z M18.545,23.743c-0.338,0-0.614,0.275-0.614,0.614
					c0,0.331,0.275,0.606,0.614,0.606h7.05c0.339,0,0.616-0.275,0.616-0.606c0-0.339-0.277-0.614-0.616-0.614H18.545z"/>
				<path fill="#F47921" d="M25.596,26.562h-7.05c-1.215,0-2.204-0.988-2.204-2.204c0-1.219,0.988-2.212,2.204-2.212h7.05
					c1.216,0,2.207,0.993,2.207,2.212C27.803,25.573,26.812,26.562,25.596,26.562z M18.545,24.314c-0.023,0-0.042,0.02-0.042,0.043
					l7.093,0.035L18.545,24.314z"/>
			</g>
		</g>
		<g>
			<g>
				<path fill="#F47921" d="M25.582,37.015c-0.621,0-1.122-0.505-1.122-1.125c0-0.625,0.501-1.12,1.122-1.12
					c2.562,0,4.646-2.094,4.646-4.646c0-2.562-2.084-4.651-4.646-4.651c-0.621,0-1.122-0.497-1.122-1.114
					c0-0.625,0.501-1.124,1.122-1.124c3.796,0,6.892,3.087,6.892,6.89S29.378,37.015,25.582,37.015z"/>
				<path fill="#F47921" d="M25.582,37.586c-0.934,0-1.693-0.762-1.693-1.696c0-0.933,0.76-1.691,1.693-1.691
					c2.247,0,4.075-1.828,4.075-4.075c0-2.249-1.828-4.079-4.075-4.079c-0.934,0-1.693-0.757-1.693-1.687
					c0-0.935,0.76-1.695,1.693-1.695c4.115,0,7.463,3.347,7.463,7.461C33.045,34.238,29.697,37.586,25.582,37.586z M25.582,23.805
					c-0.309,0-0.551,0.243-0.551,0.553c0,0.3,0.248,0.543,0.551,0.543c2.877,0,5.218,2.342,5.218,5.223
					c0,2.877-2.341,5.218-5.218,5.218c-0.309,0-0.551,0.241-0.551,0.549c0,0.306,0.248,0.554,0.551,0.554
					c3.486,0,6.32-2.834,6.32-6.32C31.902,26.64,29.068,23.805,25.582,23.805z"/>
			</g>
			<g>
				<path fill="#F47921" d="M25.582,37.523c-0.896,0-1.632-0.734-1.632-1.634c0-0.904,0.735-1.632,1.632-1.632
					c2.283,0,4.133-1.858,4.133-4.135c0-2.282-1.85-4.133-4.133-4.133c-0.896,0-1.632-0.736-1.632-1.633
					c0-0.904,0.735-1.641,1.632-1.641c4.084,0,7.4,3.323,7.4,7.406C32.982,34.2,29.666,37.523,25.582,37.523z M25.582,23.743
					c-0.342,0-0.612,0.265-0.612,0.614c0,0.331,0.274,0.606,0.612,0.606c2.844,0,5.162,2.312,5.162,5.159
					c0,2.843-2.318,5.155-5.162,5.155c-0.342,0-0.612,0.263-0.612,0.611c0,0.341,0.27,0.606,0.612,0.606
					c3.52,0,6.383-2.854,6.383-6.373C31.965,26.606,29.102,23.743,25.582,23.743z"/>
				<path fill="#F47921" d="M25.582,38.095c-1.215,0-2.203-0.989-2.203-2.205c0-1.214,0.988-2.203,2.203-2.203
					c1.964,0,3.562-1.598,3.562-3.563c0-1.964-1.598-3.562-3.562-3.562c-1.215,0-2.203-0.988-2.203-2.204
					c0-1.219,0.988-2.212,2.203-2.212c4.396,0,7.972,3.579,7.972,7.978C33.554,34.52,29.979,38.095,25.582,38.095z M25.582,24.314
					c-0.029,0-0.041,0.012-0.041,0.043c3.203,0.035,5.774,2.606,5.774,5.766c0,3.158-2.571,5.727-5.733,5.727
					c0.046,0,0.092,0.002,0.137,0.002c3.142,0,5.675-2.575,5.675-5.729C31.394,26.921,28.787,24.314,25.582,24.314z"/>
			</g>
		</g>
		<g>
			<g>
				<path fill="#F47921" d="M25.596,37.015h-7.05c-0.615,0-1.124-0.505-1.124-1.125c0-0.625,0.509-1.12,1.124-1.12h7.05
					c0.62,0,1.125,0.495,1.125,1.12C26.721,36.51,26.216,37.015,25.596,37.015z"/>
				<path fill="#F47921" d="M25.596,37.586h-7.05c-0.935,0-1.695-0.762-1.695-1.696c0-0.933,0.76-1.691,1.695-1.691h7.05
					c0.936,0,1.696,0.759,1.696,1.691C27.292,36.824,26.531,37.586,25.596,37.586z M18.545,35.341c-0.305,0-0.552,0.245-0.552,0.549
					c0,0.299,0.253,0.554,0.552,0.554h7.05c0.305,0,0.554-0.248,0.554-0.554c0-0.308-0.243-0.549-0.554-0.549H18.545z"/>
			</g>
			<g>
				<path fill="#F47921" d="M25.596,37.523h-7.05c-0.898,0-1.632-0.734-1.632-1.634c0-0.904,0.734-1.632,1.632-1.632h7.05
					c0.897,0,1.636,0.728,1.636,1.632C27.231,36.789,26.493,37.523,25.596,37.523z M18.545,35.278c-0.338,0-0.614,0.276-0.614,0.611
					c0,0.339,0.275,0.606,0.614,0.606h7.05c0.339,0,0.616-0.268,0.616-0.606c0-0.335-0.277-0.611-0.616-0.611H18.545z"/>
				<path fill="#F47921" d="M25.596,38.095h-7.05c-1.215,0-2.204-0.989-2.204-2.205c0-1.214,0.988-2.203,2.204-2.203h7.05
					c1.216,0,2.207,0.989,2.207,2.203C27.803,37.105,26.812,38.095,25.596,38.095z M18.545,35.85c-0.023,0-0.042,0.022-0.042,0.04
					l7.093,0.035L18.545,35.85z"/>
			</g>
		</g>
	</g>
</g>
</svg>
