<?xml version="1.0" encoding="utf-8"?>
<!-- Generator: Adobe Illustrator 16.0.0, SVG Export Plug-In . SVG Version: 6.00 Build 0)  -->
<!DOCTYPE svg PUBLIC "-//W3C//DTD SVG 1.1//EN" "http://www.w3.org/Graphics/SVG/1.1/DTD/svg11.dtd">
<svg version="1.1" id="Layer_1" xmlns="http://www.w3.org/2000/svg" xmlns:xlink="http://www.w3.org/1999/xlink" x="0px" y="0px"
	 width="50px" height="50px" viewBox="0 0 50 50" enable-background="new 0 0 50 50" xml:space="preserve">
<path fill="#F47921" d="M35.79,4.152c-4.393,0-8.377,2.215-10.79,5.636c-2.414-3.421-6.399-5.636-10.794-5.636
	C6.924,4.152,1,10.077,1,17.359c0,3.321,1.079,6.216,3.233,8.648c0.059,0.074,0.122,0.147,0.19,0.214l18.958,18.956
	c0.446,0.446,1.031,0.67,1.616,0.67s1.171-0.224,1.617-0.67l19.051-19.054C47.814,23.7,49,20.588,49,17.359
	C49,10.077,43.073,4.152,35.79,4.152z"/>
</svg>
