<?xml version="1.0" encoding="utf-8"?>
<!-- Generator: Adobe Illustrator 16.0.0, SVG Export Plug-In . SVG Version: 6.00 Build 0)  -->
<!DOCTYPE svg PUBLIC "-//W3C//DTD SVG 1.1//EN" "http://www.w3.org/Graphics/SVG/1.1/DTD/svg11.dtd">
<svg version="1.1" id="Layer_1" xmlns="http://www.w3.org/2000/svg" xmlns:xlink="http://www.w3.org/1999/xlink" x="0px" y="0px"
	 width="50px" height="50px" viewBox="0 0 50 50" enable-background="new 0 0 50 50" xml:space="preserve">
<g>
	<path fill="#5E5E5E" d="M48.236,11.003V8.337C48.236,4.286,44.952,1,40.898,1H9.102C5.049,1,1.764,4.286,1.764,8.337v2.666H48.236z
		"/>
	<path fill="#5E5E5E" d="M38.452,49H11.547c-5.395,0-9.784-4.387-9.784-9.783V14.366h46.473v24.851
		C48.236,44.613,43.849,49,38.452,49z M6.656,19.258v19.958c0,2.697,2.194,4.893,4.892,4.893h26.905
		c2.697,0,4.893-2.195,4.893-4.893V19.258H6.656z"/>
	<g>
		<g>
			<path fill="#5E5E5E" d="M17.19,37.264c-0.119-0.129-0.257-0.373-0.257-0.611c0-0.465,0.355-0.855,0.771-0.855
				c0.257,0,0.455,0.129,0.574,0.258c1.008,1.275,2.195,1.959,3.757,1.959c1.682,0,3.026-1.189,3.026-2.99V34.98
				c0-1.912-1.603-2.963-3.876-2.963h-0.495c-0.376,0-0.693-0.334-0.693-0.75c0-0.219,0.1-0.439,0.317-0.678l4.034-5.079h-6.13
				c-0.396,0-0.732-0.329-0.732-0.77c0-0.435,0.335-0.788,0.732-0.788h7.555c0.435,0,0.751,0.311,0.751,0.745
				c0,0.354-0.158,0.598-0.375,0.855l-4.075,5.036c2.413,0.219,4.569,1.514,4.569,4.322v0.043c0,2.748-2.057,4.639-4.628,4.639
				C19.9,39.594,18.297,38.648,17.19,37.264z"/>
			<path fill="#5E5E5E" d="M22.017,40.328c-2.169,0-4.037-0.9-5.399-2.605c-0.184-0.197-0.417-0.613-0.417-1.07
				c0-0.877,0.675-1.59,1.504-1.59c0.417,0,0.823,0.18,1.113,0.492c0.956,1.207,1.936,1.725,3.219,1.725
				c1.35,0,2.293-0.928,2.293-2.256c0-2.111-2.406-2.271-3.143-2.271h-0.495c-0.787,0-1.426-0.664-1.426-1.484
				c0-0.408,0.17-0.803,0.507-1.172l3.058-3.852h-4.611c-0.809,0-1.465-0.673-1.465-1.502c0-0.838,0.657-1.521,1.465-1.521h7.555
				c0.847,0,1.484,0.636,1.484,1.479c0,0.598-0.275,1.006-0.547,1.329l-3.279,4.051c2.466,0.639,3.946,2.41,3.946,4.834
				C27.378,38.018,25.073,40.328,22.017,40.328z M17.703,36.508l0.026,0.256c1.11,1.385,2.58,2.098,4.288,2.098
				c2.256,0,3.895-1.643,3.895-3.906c0-2.963-2.729-3.527-3.903-3.635l-1.246-0.115c-0.027,0.047-0.031,0.062-0.031,0.062
				l0.454,0.018c2.8,0,4.61,1.449,4.61,3.695c0,2.166-1.616,3.766-3.76,3.766C20.31,38.746,18.893,38.016,17.703,36.508z
				 M18.219,24.687l7.565,0.091c0.007-0.028,0.008-0.053,0.008-0.079L18.219,24.687z"/>
		</g>
		<g>
			<path fill="#5E5E5E" d="M31.525,25.579l-1.938,0.703c-0.118,0.047-0.237,0.066-0.335,0.066c-0.357,0-0.674-0.33-0.674-0.746
				c0-0.373,0.218-0.616,0.554-0.75l2.274-0.879c0.316-0.105,0.595-0.196,0.851-0.196h0.04c0.455,0,0.771,0.396,0.771,0.86v13.921
				c0,0.486-0.336,0.883-0.771,0.883c-0.415,0-0.771-0.396-0.771-0.883V25.579z"/>
			<path fill="#5E5E5E" d="M32.297,40.176c-0.83,0-1.505-0.727-1.505-1.617V26.625l-0.955,0.346
				c-0.17,0.068-0.381,0.109-0.585,0.109c-0.776,0-1.407-0.664-1.407-1.478c0-0.654,0.37-1.175,1.017-1.434l2.279-0.881
				c0.38-0.127,0.737-0.244,1.116-0.244c0.884,0,1.544,0.7,1.544,1.594v13.921C33.801,39.465,33.141,40.176,32.297,40.176z
				 M32.259,24.601l0.021,14.04l0.054-14.003C32.31,24.623,32.284,24.611,32.259,24.601z M32.077,24.57
				c-0.145,0-0.294,0.051-0.439,0.101l-2.24,0.867l2.743-0.963C32.12,24.573,32.099,24.57,32.077,24.57z"/>
		</g>
	</g>
</g>
</svg>
