<?xml version="1.0" encoding="utf-8"?>
<!-- Generator: Adobe Illustrator 16.0.0, SVG Export Plug-In . SVG Version: 6.00 Build 0)  -->
<!DOCTYPE svg PUBLIC "-//W3C//DTD SVG 1.1//EN" "http://www.w3.org/Graphics/SVG/1.1/DTD/svg11.dtd">
<svg version="1.1" id="Layer_1" xmlns="http://www.w3.org/2000/svg" xmlns:xlink="http://www.w3.org/1999/xlink" x="0px" y="0px"
	 width="50px" height="50px" viewBox="0 0 50 50" enable-background="new 0 0 50 50" xml:space="preserve">
<g>
	<path fill="#5E5E5E" d="M20.022,47.498c-0.568,0-1.113-0.227-1.515-0.628L3.128,31.489c-0.837-0.837-0.837-2.192,0-3.029
		L26.432,5.156c0.341-0.341,0.787-0.558,1.266-0.613l17.411-2.029c0.663-0.069,1.301,0.152,1.764,0.613
		c0.463,0.463,0.688,1.112,0.613,1.763l-2.03,17.408c-0.057,0.479-0.271,0.926-0.613,1.267L21.538,46.87
		C21.136,47.271,20.591,47.498,20.022,47.498z M7.673,29.975l12.349,12.351l21.263-21.264l1.63-13.977l-13.98,1.629L7.673,29.975z"
		/>
	<path fill="#5E5E5E" d="M40.088,10.406c-1.366-1.369-3.834-1.321-5.213,0.067c-0.711,0.708-1.121,1.684-1.124,2.675
		c0,0.971,0.373,1.877,1.055,2.56c0.677,0.669,1.578,1.038,2.543,1.038c1.007,0,1.956-0.397,2.672-1.116
		c0.723-0.719,1.118-1.668,1.118-2.673C41.139,11.987,40.766,11.081,40.088,10.406z"/>
</g>
</svg>
