<?xml version="1.0" encoding="utf-8"?>
<!-- Generator: Adobe Illustrator 16.0.0, SVG Export Plug-In . SVG Version: 6.00 Build 0)  -->
<!DOCTYPE svg PUBLIC "-//W3C//DTD SVG 1.1//EN" "http://www.w3.org/Graphics/SVG/1.1/DTD/svg11.dtd">
<svg version="1.1" id="Layer_1" xmlns="http://www.w3.org/2000/svg" xmlns:xlink="http://www.w3.org/1999/xlink" x="0px" y="0px"
	 width="50px" height="50px" viewBox="0 0 50 50" enable-background="new 0 0 50 50" xml:space="preserve">
<path fill="#5E5E5E" d="M38.482,47.93c-0.449,0-0.9-0.139-1.282-0.418l-12.201-8.865l-12.204,8.865c-0.765,0.561-1.8,0.561-2.565,0
	c-0.765-0.554-1.084-1.54-0.793-2.439l4.662-14.341l-12.2-8.865c-0.765-0.556-1.084-1.541-0.792-2.439s1.13-1.507,2.075-1.507
	h15.082l4.661-14.345c0.292-0.899,1.13-1.507,2.075-1.507c0.945,0,1.782,0.608,2.074,1.507l4.662,14.345h15.082
	c0.946,0,1.784,0.608,2.076,1.507c0.291,0.899-0.028,1.884-0.793,2.439l-12.204,8.865l4.661,14.341
	c0.292,0.899-0.027,1.886-0.792,2.439C39.382,47.791,38.933,47.93,38.482,47.93z M9.896,22.283l8.05,5.851
	c0.765,0.554,1.084,1.541,0.792,2.439l-3.076,9.463l8.054-5.852c0.767-0.558,1.803-0.554,2.564,0l8.051,5.849l-3.076-9.46
	c-0.292-0.898,0.027-1.886,0.793-2.439l8.054-5.851H30.15c-0.946,0-1.784-0.608-2.075-1.507l-3.076-9.466l-3.075,9.466
	c-0.292,0.899-1.13,1.507-2.075,1.507H9.896z"/>
</svg>
