<?xml version="1.0" encoding="utf-8"?>
<!-- Generator: Adobe Illustrator 16.0.0, SVG Export Plug-In . SVG Version: 6.00 Build 0)  -->
<!DOCTYPE svg PUBLIC "-//W3C//DTD SVG 1.1//EN" "http://www.w3.org/Graphics/SVG/1.1/DTD/svg11.dtd">
<svg version="1.1" id="Layer_1" xmlns="http://www.w3.org/2000/svg" xmlns:xlink="http://www.w3.org/1999/xlink" x="0px" y="0px"
	 width="50px" height="50px" viewBox="0 0 50 50" enable-background="new 0 0 50 50" xml:space="preserve">
<g>
	<g>
		<g>
			<path fill="#5E5E5E" d="M16.049,13.871c0-0.678,0.525-1.262,1.131-1.262h0.319c0.522,0,0.84,0.296,1.158,0.742l12.316,17.445
				V13.805c0-0.674,0.491-1.259,1.13-1.259c0.606,0,1.1,0.585,1.1,1.259v20.342c0,0.679-0.426,1.188-1.042,1.188H32.05
				c-0.498,0-0.844-0.317-1.188-0.768L18.28,16.701v17.445c0,0.679-0.493,1.252-1.129,1.252c-0.61,0-1.103-0.573-1.103-1.252V13.871
				z"/>
			<path fill="#5E5E5E" d="M17.151,36.541c-1.237,0-2.245-1.073-2.245-2.395V13.871c0-1.303,1.041-2.404,2.273-2.404h0.319
				c1.216,0,1.85,0.886,2.088,1.22l10.244,14.512V13.805c0-1.324,1.021-2.401,2.272-2.401c1.235,0,2.242,1.077,2.242,2.401v20.342
				c0,1.328-0.939,2.33-2.185,2.33c-1.278,0-1.952-0.884-2.207-1.219L19.423,20.307v13.84
				C19.423,35.468,18.404,36.541,17.151,36.541z"/>
		</g>
	</g>
	<path fill="#5E5E5E" d="M25.005,48.993c-12.26,0-22.509-9.186-23.84-21.364l-0.014-0.234L1,1.007h24.005
		C38.235,1.007,49,11.771,49,25C49,38.23,38.235,48.993,25.005,48.993z M5.721,27.247c1.128,9.801,9.398,17.176,19.284,17.176
		c10.711,0,19.425-8.714,19.425-19.423c0-10.71-8.714-19.423-19.425-19.423H5.597L5.721,27.247z"/>
</g>
</svg>
