<?xml version="1.0" encoding="utf-8"?>
<!-- Generator: Adobe Illustrator 16.0.0, SVG Export Plug-In . SVG Version: 6.00 Build 0)  -->
<!DOCTYPE svg PUBLIC "-//W3C//DTD SVG 1.1//EN" "http://www.w3.org/Graphics/SVG/1.1/DTD/svg11.dtd">
<svg version="1.1" id="Layer_1" xmlns="http://www.w3.org/2000/svg" xmlns:xlink="http://www.w3.org/1999/xlink" x="0px" y="0px"
	 width="50px" height="50px" viewBox="0 0 50 50" enable-background="new 0 0 50 50" xml:space="preserve">
<g>
	<g>
		<path fill="#F47921" d="M25.419,23.801c0-1.469-0.475-2.805-1.336-3.764c-1.105-1.229-2.813-1.905-4.81-1.905h-5.774
			c-0.789,0-1.43,0.696-1.43,1.552v15.318c0,0.857,0.642,1.553,1.43,1.553c0.801,0,1.453-0.695,1.453-1.553v-5.237h3.559
			l4.166,6.022c0.429,0.634,0.938,0.768,1.29,0.768c0.774,0,1.453-0.714,1.453-1.526c0-0.495-0.234-0.848-0.389-1.039l-3.371-4.825
			C24.062,28.361,25.419,26.459,25.419,23.801z M22.514,23.924c0,1.825-1.301,2.959-3.396,2.959h-4.167v-5.819h4.188
			C21.285,21.063,22.514,22.088,22.514,23.924z"/>
		<path fill="#F47921" d="M37.329,34.078l-3.454-4.713l3.294-4.48c0.223-0.292,0.339-0.614,0.339-0.961
			c0-0.802-0.589-1.43-1.344-1.43c-0.674,0-1.06,0.526-1.193,0.707l-2.796,3.95l-2.821-3.981c-0.122-0.167-0.495-0.676-1.209-0.676
			c-0.779,0-1.366,0.625-1.366,1.454c0,0.375,0.127,0.716,0.375,1.024l3.258,4.441l-3.44,4.718
			c-0.248,0.272-0.368,0.598-0.368,0.995c0,0.785,0.603,1.428,1.341,1.428c0.674,0,1.062-0.526,1.196-0.707l2.97-4.195l2.999,4.227
			c0.123,0.167,0.493,0.676,1.21,0.676c0.766,0,1.363-0.638,1.363-1.454C37.682,34.752,37.57,34.422,37.329,34.078z"/>
	</g>
	<path fill="#F47921" d="M25.007,48.998H1l0.165-26.624C2.496,10.194,12.746,1.01,25.007,1.01C38.235,1.01,49,11.773,49,25.004
		C49,38.233,38.235,48.998,25.007,48.998z M5.597,44.428h19.41c10.711,0,19.423-8.714,19.423-19.424
		c0-10.711-8.712-19.424-19.423-19.424c-9.887,0-18.158,7.375-19.286,17.175L5.597,44.428z"/>
	<path fill="#FFFFFF" d="M47.286,14.953c0,1.124-0.913,2.039-2.04,2.039H34.125c-1.125,0-2.04-0.915-2.04-2.039V4.756
		c0-1.126,0.915-2.04,2.04-2.04h11.121c1.127,0,2.04,0.914,2.04,2.04V14.953z"/>
	<path fill="#F47921" d="M45.246,18.706H34.125c-2.071,0-3.754-1.684-3.754-3.753V4.756c0-2.07,1.683-3.754,3.754-3.754h11.121
		C47.317,1.002,49,2.686,49,4.756v10.197C49,17.022,47.317,18.706,45.246,18.706z M34.125,4.43c-0.179,0-0.326,0.146-0.326,0.326
		v10.197c0,0.179,0.147,0.325,0.326,0.325h11.121c0.179,0,0.326-0.146,0.326-0.325V4.756c0-0.18-0.147-0.326-0.326-0.326H34.125z"/>
	<g>
		<g>
			<g>
				<path fill="#F47921" d="M43.363,8.555c0,0.275-0.225,0.5-0.5,0.5h-6.357c-0.275,0-0.5-0.225-0.5-0.5V7.007
					c0-0.275,0.225-0.5,0.5-0.5h6.357c0.275,0,0.5,0.225,0.5,0.5V8.555z"/>
			</g>
		</g>
	</g>
	<g>
		<g>
			<g>
				<path fill="#F47921" d="M43.363,12.702c0,0.275-0.225,0.5-0.5,0.5h-6.357c-0.275,0-0.5-0.225-0.5-0.5V11.15
					c0-0.275,0.225-0.5,0.5-0.5h6.357c0.275,0,0.5,0.225,0.5,0.5V12.702z"/>
			</g>
		</g>
	</g>
</g>
</svg>
