<?xml version="1.0" encoding="utf-8"?>
<!-- Generator: Adobe Illustrator 22.0.0, SVG Export Plug-In . SVG Version: 6.00 Build 0)  -->
<svg version="1.1" id="Layer_1" xmlns="http://www.w3.org/2000/svg" xmlns:xlink="http://www.w3.org/1999/xlink" x="0px" y="0px"
	 viewBox="0 0 50 50" style="enable-background:new 0 0 50 50;" xml:space="preserve">
<style type="text/css">
	.st0{fill:#5E5E5E;}
</style>
<g>
	<path class="st0" d="M42.9,47.4H7.1c-2,0-3.6-1.6-3.6-3.6V24.5c0-2,1.6-3.6,3.6-3.6h35.8c2,0,3.6,1.6,3.6,3.6v19.4
		C46.5,45.8,44.9,47.4,42.9,47.4z M7.1,23.9c-0.3,0-0.6,0.3-0.6,0.6v19.4c0,0.3,0.3,0.6,0.6,0.6h35.8c0.3,0,0.6-0.3,0.6-0.6V24.5
		c0-0.3-0.3-0.6-0.6-0.6H7.1z"/>
	<path class="st0" d="M45,23.9H5c-2,0-3.6-1.6-3.6-3.6v-4.1c0-2,1.6-3.6,3.6-3.6H45c2,0,3.6,1.6,3.6,3.6v4.1
		C48.6,22.3,47,23.9,45,23.9z M5,15.6c-0.3,0-0.6,0.3-0.6,0.6v4.1c0,0.3,0.3,0.6,0.6,0.6H45c0.3,0,0.6-0.3,0.6-0.6v-4.1
		c0-0.3-0.3-0.6-0.6-0.6H5z"/>
	<rect x="21.6" y="14.1" class="st0" width="6.8" height="31.8"/>
	<path class="st0" d="M22,14.7c-2.4,0-6.6-0.3-8.8-2.5c-1.1-1.1-1.7-2.5-1.7-4c0-1.5,0.6-2.9,1.7-4c1.1-1.1,2.6-1.7,4.1-1.7
		c1.5,0,2.9,0.6,4,1.7l0,0c2.6,2.7,3.7,8,3.8,8.6l0.3,1.6l-1.7,0.1C23.5,14.7,22.9,14.7,22,14.7z M17.3,5.6c-0.7,0-1.4,0.3-1.9,0.8
		c-0.5,0.5-0.8,1.2-0.8,1.9s0.3,1.4,0.8,1.9c1.2,1.2,4.2,1.5,6.3,1.6c-0.5-1.8-1.4-4.1-2.6-5.4C18.6,5.8,18,5.6,17.3,5.6
		C17.3,5.6,17.3,5.6,17.3,5.6z"/>
	<path class="st0" d="M28.1,14.7c-0.8,0-1.5,0-1.7-0.1l-1.7-0.1l0.3-1.6c0.1-0.6,1.2-6,3.8-8.6c1-1.1,2.4-1.7,4-1.7
		c1.5,0,3,0.6,4.1,1.7c1.1,1.1,1.7,2.5,1.7,4c0,1.5-0.6,2.9-1.7,4C34.8,14.4,30.5,14.7,28.1,14.7z M32.9,5.6
		C32.9,5.6,32.9,5.6,32.9,5.6c-0.7,0-1.4,0.3-1.8,0.8l0,0c-1.2,1.2-2.1,3.6-2.6,5.4c2.3,0,5.2-0.5,6.3-1.6c0.5-0.5,0.8-1.2,0.8-1.9
		s-0.3-1.4-0.8-1.9C34.3,5.8,33.6,5.6,32.9,5.6z"/>
	<circle class="st0" cx="25" cy="11.5" r="2.6"/>
</g>
</svg>
