<?xml version="1.0" encoding="utf-8"?>
<!-- Generator: Adobe Illustrator 16.0.0, SVG Export Plug-In . SVG Version: 6.00 Build 0)  -->
<!DOCTYPE svg PUBLIC "-//W3C//DTD SVG 1.1//EN" "http://www.w3.org/Graphics/SVG/1.1/DTD/svg11.dtd">
<svg version="1.1" id="Layer_1" xmlns="http://www.w3.org/2000/svg" xmlns:xlink="http://www.w3.org/1999/xlink" x="0px" y="0px"
	 width="50px" height="50px" viewBox="0 0 50 50" enable-background="new 0 0 50 50" xml:space="preserve">
<g>
	<g>
		<path fill="#FFFFFF" d="M25.419,23.801c0-1.469-0.475-2.805-1.336-3.764c-1.105-1.229-2.813-1.905-4.81-1.905h-5.774
			c-0.789,0-1.43,0.696-1.43,1.552v15.318c0,0.857,0.642,1.553,1.43,1.553c0.801,0,1.453-0.695,1.453-1.553v-5.236h3.559
			l4.166,6.021c0.429,0.634,0.938,0.768,1.29,0.768c0.774,0,1.453-0.714,1.453-1.525c0-0.495-0.234-0.848-0.389-1.039l-3.371-4.825
			C24.062,28.361,25.419,26.459,25.419,23.801z M22.514,23.924c0,1.825-1.301,2.959-3.396,2.959h-4.167v-5.819h4.188
			C21.285,21.063,22.514,22.088,22.514,23.924z"/>
		<path fill="#FFFFFF" d="M37.329,34.078l-3.454-4.713l3.294-4.48c0.224-0.292,0.339-0.614,0.339-0.961
			c0-0.802-0.589-1.43-1.344-1.43c-0.674,0-1.061,0.526-1.193,0.707l-2.796,3.949l-2.821-3.98c-0.121-0.167-0.494-0.676-1.209-0.676
			c-0.778,0-1.365,0.625-1.365,1.454c0,0.375,0.127,0.716,0.375,1.024l3.258,4.441l-3.439,4.718
			c-0.248,0.271-0.369,0.598-0.369,0.995c0,0.785,0.604,1.429,1.342,1.429c0.674,0,1.062-0.527,1.195-0.707l2.971-4.195l2.998,4.227
			c0.123,0.167,0.494,0.676,1.211,0.676c0.766,0,1.363-0.638,1.363-1.453C37.682,34.752,37.57,34.422,37.329,34.078z"/>
	</g>
	<path fill="#FFFFFF" d="M47.132,15.726c-0.305,0.742-1.033,1.266-1.886,1.266H42.68c1.113,2.446,1.75,5.153,1.75,8.012
		c0,10.71-8.712,19.424-19.423,19.424H5.597l0.124-21.673C6.849,12.955,15.12,5.58,25.007,5.58c2.499,0,4.882,0.491,7.078,1.354
		V4.756c0-1.058,0.811-1.918,1.841-2.02c-2.76-1.109-5.768-1.726-8.919-1.726c-12.261,0-22.511,9.184-23.842,21.364L1,48.998h24.007
		C38.234,48.998,49,38.232,49,25.004C49,21.716,48.334,18.582,47.132,15.726z"/>
	<path fill="#FFFFFF" d="M45.246,18.706H34.125c-2.07,0-3.754-1.684-3.754-3.753V4.756c0-2.07,1.684-3.754,3.754-3.754h11.121
		c2.07,0,3.754,1.684,3.754,3.754v10.197C49,17.022,47.316,18.706,45.246,18.706z M34.125,4.43c-0.18,0-0.326,0.146-0.326,0.326
		v10.197c0,0.179,0.146,0.325,0.326,0.325h11.121c0.179,0,0.326-0.146,0.326-0.325V4.756c0-0.18-0.147-0.326-0.326-0.326H34.125z"/>
	<g>
		<g>
			<g>
				<path fill="#FFFFFF" d="M43.363,8.555c0,0.275-0.225,0.5-0.5,0.5h-6.357c-0.275,0-0.5-0.225-0.5-0.5V7.007
					c0-0.275,0.225-0.5,0.5-0.5h6.357c0.275,0,0.5,0.225,0.5,0.5V8.555z"/>
			</g>
		</g>
	</g>
	<g>
		<g>
			<g>
				<path fill="#FFFFFF" d="M43.363,12.702c0,0.275-0.225,0.5-0.5,0.5h-6.357c-0.275,0-0.5-0.225-0.5-0.5V11.15
					c0-0.275,0.225-0.5,0.5-0.5h6.357c0.275,0,0.5,0.225,0.5,0.5V12.702z"/>
			</g>
		</g>
	</g>
</g>
</svg>
