<?xml version="1.0" encoding="utf-8"?>
<!-- Generator: Adobe Illustrator 22.0.1, SVG Export Plug-In . SVG Version: 6.00 Build 0)  -->
<svg version="1.1" id="Layer_1" xmlns="http://www.w3.org/2000/svg" xmlns:xlink="http://www.w3.org/1999/xlink" x="0px" y="0px"
	 viewBox="0 0 50 50" style="enable-background:new 0 0 50 50;" xml:space="preserve">
<style type="text/css">
	.st0{fill:#585858;}
</style>
<g>
	<g>
		<path class="st0" d="M35.7,46.3H14.9c-5.7,0-10.3-4.6-10.3-10.3V15.3C4.7,9.6,9.3,5,14.9,5h20.8C41.4,5,46,9.6,46,15.3v20.8
			C46,41.7,41.4,46.3,35.7,46.3z M14.9,7.9c-4.1,0-7.4,3.3-7.4,7.4v20.8c0,4.1,3.3,7.4,7.4,7.4h20.8c4.1,0,7.4-3.3,7.4-7.4V15.3
			c0-4.1-3.3-7.4-7.4-7.4H14.9z"/>
		<path class="st0" d="M35.7,47H14.9C8.9,47,4,42.1,4,36.1V15.3c0-6,4.9-10.9,10.9-10.9h20.8c6,0,10.9,4.9,10.9,10.9v20.8
			C46.7,42.1,41.8,47,35.7,47z M14.9,5.7c-5.3,0-9.6,4.3-9.6,9.6v20.8c0,5.3,4.3,9.6,9.6,9.6h20.8c5.3,0,9.6-4.3,9.6-9.6V15.3
			c0-5.3-4.3-9.6-9.6-9.6H14.9z M35.7,44.1H14.9c-4.4,0-8-3.6-8-8V15.3c0-4.4,3.6-8,8-8h20.8c4.4,0,8,3.6,8,8v20.8
			C43.8,40.5,40.2,44.1,35.7,44.1z M14.9,8.6c-3.7,0-6.7,3-6.7,6.7v20.8c0,3.7,3,6.7,6.7,6.7h20.8c3.7,0,6.7-3,6.7-6.7V15.3
			c0-3.7-3-6.7-6.7-6.7H14.9z"/>
	</g>
	<g>
		<path class="st0" d="M25.3,36.6c-6,0-11-4.9-11-11s4.9-11,11-11c6,0,11,4.9,11,11S31.4,36.6,25.3,36.6z M25.3,17.6
			c-4.4,0-8.1,3.6-8.1,8.1s3.6,8.1,8.1,8.1c4.4,0,8.1-3.6,8.1-8.1S29.8,17.6,25.3,17.6z"/>
		<path class="st0" d="M25.3,37.3c-6.4,0-11.6-5.2-11.6-11.6c0-6.4,5.2-11.6,11.6-11.6S37,19.3,37,25.7C37,32.1,31.8,37.3,25.3,37.3
			z M25.3,15.4C19.7,15.4,15,20,15,25.7C15,31.4,19.7,36,25.3,36s10.3-4.6,10.3-10.3C35.7,20,31,15.4,25.3,15.4z M25.3,34.4
			c-4.8,0-8.7-3.9-8.7-8.7s3.9-8.7,8.7-8.7s8.7,3.9,8.7,8.7S30.1,34.4,25.3,34.4z M25.3,18.3c-4.1,0-7.4,3.3-7.4,7.4
			c0,4.1,3.3,7.4,7.4,7.4s7.4-3.3,7.4-7.4C32.7,21.6,29.4,18.3,25.3,18.3z"/>
	</g>
	<path class="st0" d="M36.7,11.3c-1.6,0-3,1.3-3,3s1.3,3,3,3c1.6,0,3-1.3,3-3S38.4,11.3,36.7,11.3z"/>
</g>
</svg>
