<?xml version="1.0" encoding="utf-8"?>
<!-- Generator: Adobe Illustrator 23.0.3, SVG Export Plug-In . SVG Version: 6.00 Build 0)  -->
<svg version="1.1" id="Warstwa_1" focusable="false"
	 xmlns="http://www.w3.org/2000/svg" xmlns:xlink="http://www.w3.org/1999/xlink" x="0px" y="0px" viewBox="0 0 448 512"
	 style="enable-background:new 0 0 448 512;" xml:space="preserve">
<path d="M112,224c61.9,0,112-50.1,112-112S173.9,0,112,0S0,50.1,0,112S50.1,224,112,224z M112,64c26.5,0,48,21.5,48,48
	s-21.5,48-48,48s-48-21.5-48-48S85.5,64,112,64z M336,288c-61.9,0-112,50.1-112,112s50.1,112,112,112s112-50.1,112-112
	S397.9,288,336,288z M336,448c-26.5,0-48-21.5-48-48s21.5-48,48-48s48,21.5,48,48S362.5,448,336,448z M392.3,0.2l31.6-0.1
	c19.4-0.1,30.9,21.8,19.7,37.8L77.4,501.6c-4.5,6.4-11.8,10.2-19.6,10.2l-33.4,0.1c-19.5,0-30.9-21.9-19.7-37.8l368-463.7
	C377.2,4,384.5,0.2,392.3,0.2z"/>
</svg>
